<svg xmlns="http://www.w3.org/2000/svg" xmlns:xlink="http://www.w3.org/1999/xlink" id="Camada_1" x="0" y="0" version="1.1" viewBox="0 0 1920 60" xml:space="preserve" style="enable-background:new 0 0 1920 60"><style type="text/css">.st0{fill:#fff}</style><path d="M1924.5,41.1c-0.6-5.7-5.4-10.3-11.3-10.3c-2.3,0-4.5,0.7-6.3,1.9c-2.4-4.5-7.1-7.6-12.6-7.6	c-3,0-5.8,1-8.1,2.5c-2.2-1.6-5-2.5-8-2.5c-7.2,0-13.1,5.6-13.5,12.6c-0.4,0-0.8,0.1-1.2,0.2c-4.5-13.8-17.6-23.8-32.8-23.8	c-13.1,0-24.5,7.2-30.4,18c-2.3-1.1-4.9-1.6-7.6-1.6c-7.6,0-14.2,4.5-17.2,11.1c-3-2.1-6.7-3.4-10.8-3.4c-3.5,0-6.8,1-9.6,2.6	c-3-6.5-9.5-10.9-17.1-10.9c-7.6,0-14.2,4.6-17.2,11.1c-2.1-0.8-4.4-1.3-6.8-1.3c-1.5,0-2.9,0.2-4.2,0.5	c-2.3-7.8-9.5-13.5-18.1-13.5c-8.8,0-16.3,6.1-18.3,14.3c-1.5,0.6-3,1.3-4.3,2.3c-3-14.7-16-25.8-31.6-25.8	c-12.2,0-22.8,6.8-28.3,16.7c-2.2-1-4.6-1.5-7.1-1.5c-6.7,0-12.4,3.7-15.4,9.2c-1.4-0.6-2.9-0.9-4.5-0.9	c-0.6-5.7-5.4-10.3-11.3-10.3c-2.3,0-4.5,0.7-6.3,1.9c-2.4-4.5-7.1-7.6-12.6-7.6c-3,0-5.8,1-8.1,2.5c-2.2-1.6-5-2.5-8-2.5	c-6.9,0-12.5,5.1-13.4,11.7c-0.9-1.3-2-2.5-3.2-3.6c-5.7-11.4-17.4-19.2-30.9-19.2c-13.1,0-24.5,7.2-30.4,18c-0.3-0.2-0.7-0.3-1-0.4	c-2-9.8-10.7-17.2-21.2-17.2c-7.4,0-14,3.8-17.8,9.4c-2.5-0.9-5.1-1.5-7.8-1.5c-6.6,0-12.4,2.9-16.4,7.6c-2.4,0.3-4.6,0.9-6.6,2	c-2.4-3.2-5.8-5.7-9.6-7.1c-3.8-6.2-10.7-10.4-18.5-10.4c-6.2,0-11.7,2.5-15.6,6.7c-1.9-0.6-3.9-0.8-6-0.8c-7,0-13.2,3.3-17.2,8.5	c-0.5-0.3-0.9-0.7-1.4-1c-5.9-6.3-14.3-10.3-23.6-10.3c-1.7,0-3.4,0.2-5.1,0.4c-1.4-0.3-2.8-0.4-4.2-0.4c-9.4,0-17.3,5.9-20.3,14.2	c-5.1-4.1-11.5-6.7-18.6-6.7c-10.4,0-19.6,5.4-24.8,13.6c-2.8-3.4-6.8-5.7-11.4-6.3c-1.6-0.6-3.3-1-5.1-1c-1.2,0-2.5,0.2-3.6,0.5	c0-0.2,0-0.3,0-0.5c0-8-6.5-14.4-14.4-14.4c-4.4,0-8.5,2.1-11.1,5.2c-0.3-0.2-0.6-0.3-0.9-0.4c0.1-0.6,0.1-1.1,0.1-1.6	c0-9.2-7.5-16.7-16.7-16.7c-7.6,0-13.9,5-15.9,11.9c-2-0.9-4.2-1.4-6.6-1.4c-8.1,0-14.9,6.1-15.8,14c-0.4,0-0.8-0.1-1.1-0.1	c-2.1,0-4.1,0.4-6,1.1c-2.9-8.5-11-14.6-20.4-14.6c-7.4,0-14,3.8-17.8,9.4c-2.5-0.9-5.1-1.5-7.8-1.5c-7.8,0-14.5,4.1-18.4,10.3	c-1.1,0.4-2.2,0.8-3.2,1.4c-2.5-4.2-6.4-7.5-11-9.2c-3.8-6.2-10.7-10.4-18.5-10.4c-6.2,0-11.7,2.5-15.6,6.7c-1.9-0.6-3.9-0.8-6-0.8	c-7,0-13.2,3.3-17.2,8.5c-3.5-2.6-8-4.1-12.7-4.1c-1.7,0-3.4,0.2-5.1,0.6c-3.9-4.7-9.9-7.7-16.5-7.7c-9.4,0-17.3,5.9-20.3,14.2	c-5.1-4.1-11.5-6.7-18.6-6.7c-12.4,0-23.1,7.7-27.3,18.6c-1-6.9-6.8-12.2-14-12.2c-1.2,0-2.5,0.2-3.6,0.5c0-0.2,0-0.3,0-0.5	c0-8-6.5-14.4-14.4-14.4c-4.4,0-8.5,2.1-11.1,5.2c-0.3-0.2-0.6-0.3-0.9-0.4c0.1-0.6,0.1-1.1,0.1-1.6c0-9.2-7.5-16.7-16.7-16.7	c-7.6,0-13.9,5-15.9,11.9c-2-0.9-4.2-1.4-6.6-1.4c-7.4,0-13.7,5.1-15.5,12c-1.3,0.5-2.5,1.2-3.6,2c-3.4,0.4-6.5,1.8-9,3.9	c-5.9-10.6-17.3-17.8-30.2-17.8c-13.1,0-24.5,7.2-30.4,18c-2.3-1.1-4.9-1.6-7.6-1.6c-7.6,0-14.2,4.5-17.2,11.1	c-3-2.1-6.7-3.4-10.8-3.4c-3.5,0-6.8,1-9.6,2.6c-3-6.5-9.5-10.9-17.1-10.9c-7.6,0-14.2,4.6-17.2,11.1c-2.1-0.8-4.4-1.3-6.8-1.3	c-1.5,0-2.9,0.2-4.2,0.5c-2.3-7.8-9.5-13.5-18.1-13.5c-8.8,0-16.3,6.1-18.3,14.3c-1.5,0.6-3,1.3-4.3,2.3c-3-14.7-16-25.8-31.6-25.8	c-12.2,0-22.8,6.8-28.3,16.7c-2.2-1-4.6-1.5-7.1-1.5c-7.1,0-13.2,4.3-16,10.3c-2.9-2-6.3-3.1-10-3.1c-3.3,0-6.4,0.9-9,2.5	c-2.8-6-8.9-10.2-15.9-10.2c-7.1,0-13.3,4.3-16,10.3c-2-0.7-4.1-1.2-6.4-1.2c-1.3,0-2.6,0.2-3.9,0.4c-2.1-7.3-8.9-12.6-16.9-12.6	c-8.2,0-15.2,5.7-17.1,13.3c-3.4,1.3-6.3,3.6-8.3,6.6c-3.8-3.1-8.5-5-13.8-5c-1.3,0-2.6,0.2-3.9,0.3c-2.1-2.3-4.8-4-7.7-5.3	c0.2-1,0.2-2.1,0.2-3.1c0-11.9-9.7-21.6-21.6-21.6c-7.4,0-14,3.8-17.8,9.4c-2.5-0.9-5.1-1.5-7.8-1.5c-7.8,0-14.5,4.1-18.4,10.3	c-1.1,0.4-2.2,0.8-3.2,1.4c-2.5-4.2-6.4-7.5-11-9.2c-3.8-6.2-10.7-10.4-18.5-10.4c-6.2,0-11.7,2.5-15.6,6.7c-1.9-0.6-3.9-0.8-6-0.8	c-7,0-13.2,3.3-17.2,8.5c-3.5-2.6-8-4.1-12.7-4.1c-1.7,0-3.4,0.2-5.1,0.6c-3.9-4.7-9.9-7.7-16.5-7.7c-9.4,0-17.3,5.9-20.3,14.2	c-5.1-4.1-11.5-6.7-18.6-6.7c-12.4,0-23.1,7.7-27.3,18.6c-1-6.9-6.8-12.2-14-12.2c-1.2,0-2.5,0.2-3.6,0.5c0-0.2,0-0.3,0-0.5	c0-8-6.5-14.4-14.4-14.4c-4.4,0-8.5,2.1-11.1,5.2c-0.3-0.2-0.6-0.3-0.9-0.4c0.1-0.6,0.1-1.1,0.1-1.6c0-9.2-7.5-16.7-16.7-16.7	c-7.6,0-13.9,5-15.9,11.9c-2-0.9-4.2-1.4-6.6-1.4c-8.1,0-14.9,6.1-15.8,14c-0.4,0-0.8-0.1-1.1-0.1c-9.4,0-17.1,7.6-17.1,17.1	c0,1.5,0.2,3,0.6,4.4C3.7,51.1,0,56,0,61.7c0,0.4,0,0.9,0.1,1.3h385.6c0,0.2,0.1,0.3,0.1,0.4h181.9h4.8h195.2v-0.1h64.3	c0.5-0.1,1-0.2,1.5-0.3h261.2h43.3c0,0.2,0.1,0.3,0.1,0.4h181.9h4.8h155.7h39.4H1662h4.8h195.2v-0.1h64.3c5.5-0.8,9.7-5.5,9.7-11.2	C1935.8,46.2,1930.7,41.1,1924.5,41.1z" class="st0"/></svg>